<svg xmlns="http://www.w3.org/2000/svg" viewBox="0 0 132.08 30.56"><defs><style>.cls-1{fill:#e11b22;}.cls-2{fill:#231f20;}</style></defs><title>diabetes</title><g id="Lag_1" data-name="Lag 1"><path class="cls-1" d="M96.26,76.5a6.64,6.64,0,0,0-3.07.94c-3.52,1.65-13.45.53-13.45-7s8.4-6.82,8.4-6.82c.2,0,.43,0,.49,0s0-.47-.08-.62a8.21,8.21,0,0,1,.94-6.39,8.13,8.13,0,0,1,13.53,0A8.21,8.21,0,0,1,104,63c0,.15-.14.55-.08.62s.3,0,.49,0c0,0,8.4-.68,8.4,6.82s-9.9,8.65-13.46,7A7,7,0,0,0,96.26,76.5Zm3-3.16c3.44,1.8,9.4,1,9.4-2.92,0-2.94-3.33-4.3-5.87-3.81a13,13,0,0,0-3.94,1.73c-.44.23-.44,0,.15-.76a6.93,6.93,0,0,0,1.41-7.3,4.31,4.31,0,0,0-8.31,0,6.85,6.85,0,0,0,1.45,7.3c.59.75.59,1,.11.76a13.1,13.1,0,0,0-3.94-1.73c-2.54-.49-5.87.87-5.87,3.81,0,3.92,6,4.73,9.4,2.92a5,5,0,0,1,6,0Z" transform="translate(-79.74 -50.57)"/><path class="cls-2" d="M138.31,69.81a1.56,1.56,0,0,1,1.75-1.69,5.18,5.18,0,0,1,1.83.42l-.27.78a4.35,4.35,0,0,0-1.37-.33c-.7,0-.94.32-.94,1V71.2h2.55V72h-2.55v6.18h-1V72h-.72v-.8h.72Z" transform="translate(-79.74 -50.57)"/><path class="cls-2" d="M146.45,71c2.17,0,2.78,1.19,2.78,3.63s-.61,3.62-2.78,3.62-2.77-1.19-2.77-3.62S144.28,71,146.45,71Zm0,.87c-1.49,0-1.72.81-1.72,2.74s.23,2.78,1.72,2.78,1.73-.84,1.73-2.78S148,71.86,146.45,71.86Z" transform="translate(-79.74 -50.57)"/><path class="cls-2" d="M155.67,71.94h-.28a2.85,2.85,0,0,0-.73.12,6.24,6.24,0,0,0-1.39.79v5.34h-1V72l-.27-.73.83-.28.42.84c.74-.41,1.09-.63,1.39-.76a2.73,2.73,0,0,1,.81-.17.63.63,0,0,1,.26,0Z" transform="translate(-79.74 -50.57)"/><path class="cls-2" d="M157.75,74.62c0-2.44.6-3.63,2.77-3.63s2.76,1.13,2.76,3.63v.45H158.8c0,1.27.14,2.31,1.67,2.31a5.26,5.26,0,0,0,2.18-.73l.35.8a5.92,5.92,0,0,1-2.57.79C158.34,78.24,157.75,77.05,157.75,74.62Zm1-.37h3.44c0-1.9-.5-2.38-1.71-2.38S158.8,72.29,158.79,74.25Z" transform="translate(-79.74 -50.57)"/><path class="cls-2" d="M167.59,71.59A10.55,10.55,0,0,1,170,71c1,0,1.84.59,1.84,2.47v4.71h-1V74c0-1.12-.06-2.1-1.08-2.1a6.23,6.23,0,0,0-2.16.59v5.72h-1V72l-.27-.7,1-.28Z" transform="translate(-79.74 -50.57)"/><path class="cls-2" d="M175.49,68.2h1v1h-1Zm0,2.89h1v7.09h-1Z" transform="translate(-79.74 -50.57)"/><path class="cls-2" d="M181.47,71.59a10.59,10.59,0,0,1,2.42-.59c1,0,1.85.59,1.85,2.47v4.71h-1V74c0-1.12-.06-2.1-1.08-2.1a6.23,6.23,0,0,0-2.16.59v5.72h-1V72l-.26-.7,1-.28Z" transform="translate(-79.74 -50.57)"/><path class="cls-2" d="M193.21,77.71a9.6,9.6,0,0,1-2.07.55c-1.74,0-2.25-1.35-2.25-3.26V73.71c0-1.94.81-2.71,2.15-2.71a8.35,8.35,0,0,1,2.16.59l.31-.57,1,.26-.3.7v6.17c0,2.1-.92,3-2.67,3a7.07,7.07,0,0,1-2.69-.81l.35-.81a5.81,5.81,0,0,0,2.31.74c1.22,0,1.68-.65,1.71-2Zm0-5.26a5.88,5.88,0,0,0-2-.58c-1,0-1.3.74-1.3,2.12v.7c0,2.46.43,2.67,1.5,2.67a7.19,7.19,0,0,0,1.78-.46Z" transform="translate(-79.74 -50.57)"/><path class="cls-2" d="M197.22,74.62c0-2.44.6-3.63,2.77-3.63s2.76,1.13,2.76,3.63v.45h-4.48c0,1.27.14,2.31,1.66,2.31a5.31,5.31,0,0,0,2.19-.73l.35.8a5.92,5.92,0,0,1-2.58.79C197.81,78.24,197.22,77.05,197.22,74.62Zm1-.37h3.45c0-1.9-.51-2.38-1.71-2.38S198.27,72.29,198.25,74.25Z" transform="translate(-79.74 -50.57)"/><path class="cls-2" d="M206.74,71.59a10.59,10.59,0,0,1,2.42-.59c1,0,1.85.59,1.85,2.47v4.71h-1V74c0-1.12-.06-2.1-1.08-2.1a6.13,6.13,0,0,0-2.15.59v5.72h-1V72l-.26-.7,1-.28Z" transform="translate(-79.74 -50.57)"/><path class="cls-2" d="M143.05,62.21a8.94,8.94,0,0,1-2.35.73c-2.1,0-3.22-1.78-3.26-3.75,0-.44,0-1.19,0-2.38A2.63,2.63,0,0,1,140.2,54a12.09,12.09,0,0,1,2.62.62v-4h2V61l.6,1.5L143.7,63ZM142.82,56a8.34,8.34,0,0,0-1.93-.48c-1,0-1.29.77-1.32,1.86,0,.24,0,.66,0,1.19,0,2.12.33,2.83,1.74,2.83a3.81,3.81,0,0,0,1.53-.47Z" transform="translate(-79.74 -50.57)"/><path class="cls-2" d="M148.88,50.57h2v1.76h-2Zm0,3.54h2v8.72h-2Z" transform="translate(-79.74 -50.57)"/><path class="cls-2" d="M159.68,62.21a8.13,8.13,0,0,1-2.24.73c-2.06,0-3.23-1.07-3.23-2.81,0-1.44.79-2.59,3-2.59h2.24v-.88c0-.76-.36-1.17-1.39-1.17a7.6,7.6,0,0,0-2.71.72l-.55-1.4a10.07,10.07,0,0,1,3.36-.82c2.16,0,3.33.62,3.33,2.86V61l.6,1.52-1.76.39Zm-2.12-3.41c-1.19,0-1.47.65-1.47,1.31s.35,1.33,1.66,1.33a3.85,3.85,0,0,0,1.7-.49V58.8Z" transform="translate(-79.74 -50.57)"/><path class="cls-2" d="M166.65,63l-1.73-.39.43-1.42V50.57h2.06v4a12.25,12.25,0,0,1,2.86-.62c1.74,0,2.52,1.21,2.52,2.81,0,1.76,0,2.07,0,2.45,0,2-1,3.68-3.26,3.68a9.11,9.11,0,0,1-2.36-.73Zm.76-2a4.57,4.57,0,0,0,1.7.47c1.37,0,1.61-.71,1.61-2.83,0-.53,0-1,0-1.19,0-1.09-.19-1.86-1.19-1.86a7.71,7.71,0,0,0-2.1.48Z" transform="translate(-79.74 -50.57)"/><path class="cls-2" d="M183.5,58.18v1h-5.71c.05,1.17.16,2.24,1.76,2.24a5.93,5.93,0,0,0,2.83-.92l.64,1.38a7.71,7.71,0,0,1-3.49,1.09c-3,0-3.86-1.47-3.86-4.52s1-4.41,3.91-4.41C182.29,54,183.5,55.23,183.5,58.18Zm-5.71-.28h3.61c0-1.79-.56-2.34-1.8-2.34S177.81,56.07,177.79,57.9Z" transform="translate(-79.74 -50.57)"/><path class="cls-2" d="M187.07,60.61V55.45h-1.19V54.09h1.19v-1l1-1.68h1.09v2.66h2.31v1.36h-2.31v4.62c0,1,.33,1.21.91,1.21a5.84,5.84,0,0,0,1.85-.41l.41,1.46a7.66,7.66,0,0,1-2.71.59A2.19,2.19,0,0,1,187.07,60.61Z" transform="translate(-79.74 -50.57)"/><path class="cls-2" d="M202,58.18v1h-5.7c.05,1.17.15,2.24,1.76,2.24a5.9,5.9,0,0,0,2.82-.92l.64,1.38a7.64,7.64,0,0,1-3.48,1.09c-3,0-3.86-1.47-3.86-4.52s1-4.41,3.91-4.41C200.82,54,202,55.23,202,58.18Zm-5.7-.28h3.6c0-1.79-.55-2.34-1.79-2.34S196.34,56.07,196.32,57.9Z" transform="translate(-79.74 -50.57)"/><path class="cls-2" d="M204.24,61.87l.81-1.35a6.38,6.38,0,0,0,3,.95c.83,0,1.71-.45,1.71-1.29,0-.57-.69-.83-1.29-1-2.29-.66-3.69-1.09-3.69-2.8S206.08,54,208,54a11.55,11.55,0,0,1,3.59.66l-.45,1.41a9,9,0,0,0-2.91-.63c-.76,0-1.42.29-1.42.87,0,.8,1.66,1.06,2.28,1.23,1.86.52,2.77,1,2.77,2.57s-1.31,2.83-3.72,2.83A8,8,0,0,1,204.24,61.87Z" transform="translate(-79.74 -50.57)"/></g><g id="Layer_2" data-name="Layer 2"><rect class="cls-1" x="41.69" y="0.08" width="1.06" height="27.65"/></g></svg>