<svg xmlns="http://www.w3.org/2000/svg" viewBox="0 0 129 15"><defs><style>.cls-1{fill:#95c43d;fill-rule:evenodd;}</style></defs><title>loop</title><g id="Layer_2" data-name="Layer 2"><g id="Brand_Logo" data-name="Brand/Logo"><path id="Color" class="cls-1" d="M92.78,62.37H96.2c1,0,2.93.1,2.93,2.84v5.33c0,2,1,2.94,3.64,2.94s7.92,0,10.63,0c3.59,0,3.73,2.94-.13,2.94H93.49c-2.53,0-3.36-1-3.36-3V64.91a2.48,2.48,0,0,1,2.65-2.54M187.13,69c0,2.52-3.69,7.4-17.17,7.4s-17.83-4.06-17.83-7.71,7.1-7.29,16.21-7.29c3.3,0,2.85,2.58-.39,3s-6.6,1.59-6.6,4.52,3.3,4.42,8.33,4.42,8.22-1.75,8.22-4.42-2.73-3.13-.72-5.44S187.13,64.55,187.13,69Zm-37,0c0,2.52-3.69,7.4-17.17,7.4s-17.83-4.06-17.83-7.71,7.1-7.29,16.21-7.29c3.3,0,2.84,2.58-.39,3s-6.6,1.59-6.6,4.52,3.3,4.42,8.34,4.42,8.22-1.75,8.22-4.42-2.75-3.13-.73-5.44S150.13,64.55,150.13,69Zm43-6.6h15.09c14.87,0,13.67,9.2,1.57,9.2h-7.28c-5.26,0-1.38,4.8-6.47,4.8H193c-2.48,0-2.85-1.5-2.85-2.45V71.37c0-1.7,1.54-2.3,3.67-2.3h11.36c6.4,0,6-4.1-.11-4.1-5.05,0-6.7,0-11.52,0C189.44,64.92,190,62.37,193.14,62.37Z" transform="translate(-90.13 -61.37)"/></g></g></svg>