<?xml version="1.0" encoding="utf-8"?>
<!-- Generator: Adobe Illustrator 24.0.1, SVG Export Plug-In . SVG Version: 6.00 Build 0)  -->
<svg version="1.1" id="Layer_1" xmlns="http://www.w3.org/2000/svg" xmlns:xlink="http://www.w3.org/1999/xlink" x="0px" y="0px"
	 viewBox="0 0 512.7 176.2" style="enable-background:new 0 0 512.7 176.2;" xml:space="preserve">
<style type="text/css">
	.st0{fill:#191C27;}
</style>
<title>svale</title>
<path class="st0" d="M76.5,71.3h-8v16.3l4.7,0.9L76.5,71.3z M68.5,90.9v7.5l3.5-3.5l0.6-3.2L68.5,90.9z M68.5,112.3h0.4l2.3-12
	l-2.6,2.6V112.3z M72.3,112.3h8.2l-6.1-10.6L72.3,112.3z M92.6,110.1l-2.1,2.2h7.9l1-9.5L92.6,110.1L92.6,110.1z M87.1,94.9l-11.1-2
	l-0.7,3.4c-0.1,0.7,7.3,13.4,8.8,16h1.4l5.2-5l0,0l8.8-8.5l0.3-1.4L87.1,94.9L87.1,94.9z M102.4,112.3h7.5v-0.7l-6.2-7.7
	L102.4,112.3z M104,99.8l5.9,7v-8.2l-5.6-0.4L104,99.8z M76.7,89.2L87,91.5l0,0l13.5,3l3-17.5l5.4,0.6l-4,17.4l5,0.6V71.3H80.1
	L76.7,89.2z M132,84.4c0-3,1.9-5,5.2-5c1.8-0.1,3.6,0.6,5,1.8l1.3-2c-1.7-1.4-3.9-2.2-6.2-2.1c-4-0.1-7.4,3-7.5,7.1c0,0,0,0,0,0
	c0,0.1,0,0.3,0,0.4c0,9.1,12.1,7.4,12.1,14.4c0,3-2,5.3-5.8,5.3c-2.4,0-4.7-0.9-6.5-2.5l-1.3,2c2.1,1.9,4.8,3,7.7,2.9
	c5.1,0,8.1-3.4,8.1-7.8C144.2,90,132.1,91.6,132,84.4L132,84.4z M164,77.4l-6.3,22c-0.5,1.6-1,3.3-1.4,5h-0.1c-0.5-1.6-1-3.3-1.4-5
	l-6.3-22H146l8.3,28.7h3.6l8.3-28.7L164,77.4z M173.7,77.4l-8.3,28.8h2.3l2.5-8.9h10.5l2.5,8.8h2.4l-8.3-28.7L173.7,77.4z M170.9,95
	l3.2-11.2c0.4-1.6,0.9-3.1,1.3-4.7h0.1c0.5,1.6,0.9,3.2,1.4,4.8l3.2,11.2L170.9,95z M191.5,77.5h-2.2v28.7h13.4v-2.2h-11.3
	L191.5,77.5z M209,92.8h9.5v-2.3H209V79.8h10.8v-2.3h-13v28.7h13.5v-2.2H209L209,92.8z M239.5,103c-1.5,0.9-3.2,1.4-5,1.3
	c-5.1,0-8-3.5-8-12.6c0-10.1,4.3-12.3,8.1-12.3c2.5,0,4.3,0.7,5.4,1.9l1.4-2c-0.9-0.9-2.7-2.3-6.7-2.3c-5.9,0-10.5,4.5-10.5,14.8
	c0,9.8,3.4,14.7,9.8,14.7c3.7,0,6-1.1,7.6-2.6V91.6h-2.2L239.5,103z M253.2,77.5l-8.3,28.7h2.3l2.5-8.9h10.6l2.5,8.8h2.3l-8.3-28.7
	L253.2,77.5z M250.3,95l3.2-11.2c0.4-1.6,0.9-3.1,1.3-4.7h0.1c0.5,1.6,0.9,3.2,1.4,4.8l3.2,11.2L250.3,95z M273.9,77.5l-8.3,28.7
	h2.3l2.5-8.9h10.6l2.5,8.9h2.3l-8.3-28.7H273.9z M271,95l3.2-11.2c0.4-1.6,0.9-3.1,1.3-4.7h0.1c0.5,1.6,0.9,3.2,1.4,4.8l3.2,11.2
	L271,95z M297.9,93.4v-0.2c3.1-0.3,5.8-3.2,5.8-7.8c0-5.7-3.2-8-8.3-8h-5.8v28.7h2.1V93.9h2.4c2,0,3.3,1,4.3,3.1l4.7,9.1h2.6
	l-4.8-9.3C299.8,94.8,298.8,93.8,297.9,93.4L297.9,93.4z M295.3,91.7h-3.6V79.8h3.3c4.2,0,6.4,1.6,6.4,6S298.9,91.7,295.3,91.7
	L295.3,91.7z M317.1,77.5h-6.3v28.7h6.2c7.3,0,10.9-4.6,10.9-14.5C327.8,81.9,324.5,77.5,317.1,77.5L317.1,77.5z M317.1,103.9h-4.1
	V79.8h3.9c5.7,0,8.7,3.2,8.7,12.2S322.7,103.8,317.1,103.9L317.1,103.9z M335.8,92.8h9.5v-2.3h-9.5V79.8h10.8v-2.3h-13v28.7h13.5
	v-2.2h-11.3L335.8,92.8z M368.1,103.3h-0.3c-0.9-1.9-1.8-3.9-2.7-5.8l-9.4-20h-3.3v28.7h2V80.3h0.4c0.9,2,1.8,3.9,2.8,5.9l9.3,20
	h3.3V77.5h-2L368.1,103.3z M399.8,96.5h-0.2l-6.5-19h-5.8v28.7h3.4V82.3h0.2l6.9,19.9h3.5c2.3-6.6,4.6-13.3,6.9-19.9h0.2v23.9h3.5
	V77.5h-5.7L399.8,96.5z M422.1,93.4h8.9v-3.6h-8.9V81h10.2v-3.6h-13.9v28.7h14.3v-3.6h-10.7L422.1,93.4z M440.6,84.7
	c-0.1-2.1,1.5-3.9,3.7-4c0.2,0,0.3,0,0.5,0c1.8,0,3.6,0.8,4.9,2.2l2.2-3.2c-1.8-1.8-4.3-2.8-6.8-2.7c-4.3-0.2-7.9,3.2-8.1,7.5
	c0,0,0,0,0,0c0,0.2,0,0.4,0,0.5c0,9.1,11.9,7.8,11.9,13.8c0,2.3-1.6,4.2-4.6,4.2c-2.5-0.1-4.8-1.1-6.4-2.9l-2.1,3.4
	c2.2,2.1,5.1,3.3,8.2,3.2c5.7,0,8.7-3.8,8.7-8.1C452.5,89.6,440.6,90.7,440.6,84.7L440.6,84.7z M453.6,77.5V81h6.6v25.2h3.6V81h6.6
	v-3.6L453.6,77.5z"/>
</svg>
