<svg id="Lag_1" data-name="Lag 1" xmlns="http://www.w3.org/2000/svg" viewBox="0 0 404.4 73.35"><defs><style>.cls-1{fill:#7f3d90;}</style></defs><title>ung</title><path class="cls-1" d="M385,114.23a5.8,5.8,0,1,0-5.8-5.8A5.8,5.8,0,0,0,385,114.23Z" transform="translate(-232.33 -57.65)"/><path class="cls-1" d="M242.22,98.65c0,6.93.35,10,2,12a4.65,4.65,0,0,0,3.69,1.56,4.45,4.45,0,0,0,3.86-2c1.17-1.78,1.26-3.6,1.26-13.44V95.09c0-3-.18-6-.22-7.59h9.93c0,1,0,4.25,0,7.68v2c0,8.33-.48,13.44-3.77,17.39-2.65,3.21-6.85,4.85-11.66,4.85-3.56,0-8.85-.6-12.14-5.42-2.13-3.16-2.87-6.37-2.87-16.91V94.74c0-2,0-5.59,0-6.59h10.1a65.76,65.76,0,0,0-.26,7.55Z" transform="translate(-232.33 -57.65)"/><path class="cls-1" d="M265.67,118.72c.26-3.08,1.3-25.28,1.74-31l.43-.26c6.16,4.5,20.07,15,21.59,16.17,0-2.39-.13-14-.08-15.87l8.84.22c-.26,3.38-.65,9.84-1,16.17s-.65,12.44-.78,15.26l-.43.22c-5.21-3.39-20.86-15.79-21.51-16.31,0,1.78,0,14.31.09,15.74Z" transform="translate(-232.33 -57.65)"/><path class="cls-1" d="M326.28,112c0,1.65.08,5.51.08,6.42a41.93,41.93,0,0,1-9.58,1c-12.61-.17-17.9-6.07-17.9-12.87,0-5.29,4.59-15.48,22.37-19.38l2,8.49c-5.85.78-14.13,4.47-14.13,10.41,0,4.29,4.55,6,7.85,5.9l0-3.47c0-1.26-.09-2.43-.09-3.64h9.41c0,1.69,0,2.68,0,4Z" transform="translate(-232.33 -57.65)"/><path class="cls-1" d="M331.09,99.64c0-.91,0-10.49-.22-11.7a119.12,119.12,0,0,1,16.65.78c11.36,1.56,13.53,7.45,13.53,11,0,13.65-16.22,19.25-30.22,19.25.17-2,.26-12.75.26-13.92Zm9.54,11.41c4.25-.7,10.1-3.78,10.1-9.85,0-5.11-5.2-6.33-10.1-6.33Z" transform="translate(-232.33 -57.65)"/><path class="cls-1" d="M404,116.9c.74-1.74,9.5-24.41,12-29.92h.44c2.64,4.29,9.06,14.92,10.4,17.13,1.69-2.56,7.81-12.71,10.1-16.43h.44c3,6.41,11.7,26.1,12.87,28.48l-8.75,3.9c-1.39-3.47-5.51-14.48-6-15.65-.52.78-6.07,9.32-9.32,13.88h-.43c-3.34-5-7.89-12.4-8.59-13.71-.73,2.26-3.86,13.45-4.64,15.48Z" transform="translate(-232.33 -57.65)"/><path class="cls-1" d="M449.71,112.09c4.2.13,8.8-1,8.8-3.08,0-.87-.74-1.39-4.25-3.38-2.73-1.57-5.9-3.73-5.9-7.37,0-4.86,6.46-10.15,17.43-11.1L467,94.4c-5.42,0-8.15.91-8.15,2.68,0,1,1.39,1.7,4.21,3.08,2.3,1.13,6,3.08,6,7,0,4.77-5,10.84-18.16,12.36Z" transform="translate(-232.33 -57.65)"/><path class="cls-1" d="M480.81,105c0,1.65.13,12.61.21,13.27h-9.66c.17-1.05.08-14.79.08-15.7V99c0-1.3-.08-10.7-.21-11.53a139.25,139.25,0,0,1,15.86.61c6.42.82,9.89,3.34,9.89,7.33,0,3.55-2.21,6.28-5.59,8.67,1.3,1.47,7.93,8.19,9.06,9.58l-7.94,6c-1-1.64-9.4-13.83-10.57-15.74,1.9-1.12,5-3.51,5-6.41,0-2-1.43-4-6.11-4Z" transform="translate(-232.33 -57.65)"/><path class="cls-1" d="M512.27,105.86c0,4.33.13,12.09.17,13.09H502.38c.09-1.91.13-12,.13-13.18v-4.68c0-.74-.13-11.88-.13-12.92h10.06c0,.78-.17,7.8-.17,13Z" transform="translate(-232.33 -57.65)"/><path class="cls-1" d="M515.6,118.56c.26-3.08,1.3-25.28,1.73-31l.44-.26c6.15,4.5,20.07,15,21.59,16.17,0-2.39-.13-14-.09-15.87l8.85.22c-.26,3.38-.65,9.84-1,16.17s-.65,12.44-.78,15.26l-.44.22c-5.2-3.39-20.85-15.79-21.5-16.31,0,1.78,0,14.31.08,15.74Z" transform="translate(-232.33 -57.65)"/><path class="cls-1" d="M577.85,112c0,1.64.09,5.5.09,6.41a41.82,41.82,0,0,1-9.58,1c-12.62-.17-17.91-6.07-17.91-12.88,0-5.29,4.6-15.48,22.37-19.38l2,8.5c-5.86.78-14.14,4.47-14.14,10.4,0,4.3,4.56,6,7.85,5.9l0-3.47c0-1.25-.08-2.43-.08-3.64h9.41c0,1.69,0,2.69,0,4Z" transform="translate(-232.33 -57.65)"/><path class="cls-1" d="M601.1,119.7c-1.56,0-17.21-.44-19.46-.44.13-2.3.13-11.57.13-12.57v-5.81c0-.69-.09-11.14-.13-12.4,2.43,0,17-.65,18.6-.78l.17,7.15c-1.6,0-8.41.22-9.19.22v5.72c.87,0,5.85-.21,7.76-.39l.13,6.94c-1.17,0-6.94-.17-7.89-.17v5.15c1.13,0,7.67.09,9.71-.08Z" transform="translate(-232.33 -57.65)"/><path class="cls-1" d="M604.22,118.44c.26-3.08,1.3-25.28,1.73-31l.44-.26c6.15,4.51,20.07,15,21.59,16.17,0-2.38-.13-14-.09-15.87l8.85.22c-.26,3.38-.65,9.84-1,16.17s-.65,12.44-.78,15.26l-.44.22c-5.2-3.38-20.85-15.78-21.5-16.3,0,1.77,0,14.3.09,15.73Z" transform="translate(-232.33 -57.65)"/><polygon class="cls-1" points="148.22 44.13 131.81 12.67 125.25 21.43 148.22 44.13"/><path class="cls-1" d="M382.17,88a8.37,8.37,0,0,1-1.78-5.15,19.72,19.72,0,0,1,.14-2.6,21.89,21.89,0,0,0-7.68,3.07l3.53,7.2A14.23,14.23,0,0,1,382.17,88Z" transform="translate(-232.33 -57.65)"/><path class="cls-1" d="M380.49,57.65h12.24a18.43,18.43,0,0,0-3.27,9.52c0,3.25,1.49,4.39,1.49,7.1,0,4-4.52,6-3.17,9.71,1.12,3.08,2.73,6.88-3.83,13.36,4.25-7.14-1.57-9.74-1.85-14.12-.33-5.29,2-6.72,2-8.86C384.14,69.7,377.79,64.65,380.49,57.65Z" transform="translate(-232.33 -57.65)"/><path class="cls-1" d="M403.5,90.27l-5.8,6a14.12,14.12,0,1,1-25.52-.81l-5.94-5.55a22,22,0,1,0,37.26.37Z" transform="translate(-232.33 -57.65)"/><path class="cls-1" d="M390.33,88.9a14.15,14.15,0,0,1,4.08,2.68l3.4-7.47A22.16,22.16,0,0,0,390,80.44a4.72,4.72,0,0,0-.8,1.62c-.28,1.13.84,3,1.09,4.29A11,11,0,0,1,390.33,88.9Z" transform="translate(-232.33 -57.65)"/><polygon class="cls-1" points="173.03 14.47 183.62 16.13 158.87 43.85 173.03 14.47"/><path class="cls-1" d="M472.62,124.27l-.26,1.23H474l-.22,1h-1.67l-.54,2.56h-1.3l1.25-5.88h3.9l-.22,1Z" transform="translate(-232.33 -57.65)"/><path class="cls-1" d="M478.14,125.82a.77.77,0,0,0-.42-.15,1,1,0,0,0-.93.77l-.57,2.67h-1.14l1-4.57h1.14l-.07.35a1.58,1.58,0,0,1,1.09-.45,1,1,0,0,1,.61.17Z" transform="translate(-232.33 -57.65)"/><path class="cls-1" d="M478.53,129.11l1-4.56h1.22l-1,4.56Zm2.17-5a.82.82,0,0,1-.52.19.5.5,0,0,1-.43-.19.53.53,0,0,1-.11-.47.85.85,0,0,1,.3-.49.82.82,0,0,1,.52-.19.5.5,0,0,1,.43.19.52.52,0,0,1,.1.49A.8.8,0,0,1,480.7,124.09Z" transform="translate(-232.33 -57.65)"/><path class="cls-1" d="M483.28,129.08a4.38,4.38,0,0,1-.88.1c-.87,0-1.2-.48-1-1.45l.46-2.18h-.54l.22-1h.54l.16-.75,1.27-.57-.28,1.32h1.06l-.22,1H483l-.35,1.66c-.14.67,0,1,.4,1a2.17,2.17,0,0,0,.66-.14Z" transform="translate(-232.33 -57.65)"/><path class="cls-1" d="M484.28,129.11l1-4.56h1.23l-1,4.56Zm2.17-5a.82.82,0,0,1-.52.19.5.5,0,0,1-.43-.19.53.53,0,0,1-.11-.47.85.85,0,0,1,.3-.49.82.82,0,0,1,.52-.19.5.5,0,0,1,.43.19.52.52,0,0,1,.1.49A.85.85,0,0,1,486.45,124.09Z" transform="translate(-232.33 -57.65)"/><path class="cls-1" d="M489.61,129.1l.08-.41a1.49,1.49,0,0,1-1.17.42,1.67,1.67,0,0,1-1.41-.59,1.8,1.8,0,0,1-.28-1.55,3.32,3.32,0,0,1,.92-1.69,2.35,2.35,0,0,1,1.73-.78,1.77,1.77,0,0,1,1,.32l.28-1.32,1.32-.44-1.28,6Zm.59-2.81a1.67,1.67,0,0,0-.23-.43.76.76,0,0,0-.51-.2,1.31,1.31,0,0,0-.77.2,1.76,1.76,0,0,0-.61,1.11,1,1,0,0,0,.12.8.92.92,0,0,0,.75.3,1.05,1.05,0,0,0,.61-.27,3.05,3.05,0,0,0,.42-.45Z" transform="translate(-232.33 -57.65)"/><path class="cls-1" d="M494,129.12a4.5,4.5,0,0,1-.68,0,4.2,4.2,0,0,1-1.61-.43l.64-1a2.31,2.31,0,0,0,1.32.35c.48,0,.75-.14.8-.41s-.11-.24-.41-.32a8.34,8.34,0,0,1-1-.3,1,1,0,0,1-.72-1.25,1.66,1.66,0,0,1,.93-1.15,3.26,3.26,0,0,1,1.45-.33,2.42,2.42,0,0,1,1.47.4l-.61,1.07a3,3,0,0,0-.62-.31,2.15,2.15,0,0,0-.68-.09c-.34,0-.53.12-.58.36s.13.25.44.34a9.83,9.83,0,0,1,1,.28,1,1,0,0,1,.64,1.27A1.84,1.84,0,0,1,494,129.12Z" transform="translate(-232.33 -57.65)"/><path class="cls-1" d="M497,126.47l.22-1h2l-.22,1Z" transform="translate(-232.33 -57.65)"/><path class="cls-1" d="M507.15,128.54a2.74,2.74,0,0,1-1.83.65,1.81,1.81,0,0,1-1.56-.64,2.14,2.14,0,0,1-.25-1.73,3,3,0,0,1,1-1.69,2.72,2.72,0,0,1,1.8-.67,1.77,1.77,0,0,1,1.52.67,2,2,0,0,1,.3,1.69A3.08,3.08,0,0,1,507.15,128.54Zm-1.06-3a1.13,1.13,0,0,0-.86.4,1.92,1.92,0,0,0-.43.88c-.18.85.07,1.27.76,1.27a1.1,1.1,0,0,0,1-.47,2.23,2.23,0,0,0,.3-.8C507,126,506.77,125.55,506.09,125.55Z" transform="translate(-232.33 -57.65)"/><path class="cls-1" d="M512,130a2.49,2.49,0,0,1-1.94,1l.07-1.11a1.76,1.76,0,0,0,.9-.35,1.21,1.21,0,0,0,.45-.74,1.72,1.72,0,0,1-.53.25,2.25,2.25,0,0,1-.53,0,2.66,2.66,0,0,1-.85-.14,1.25,1.25,0,0,1-.56-.4,2.36,2.36,0,0,1-.17-1.84,2.7,2.7,0,0,1,.93-1.54,2.46,2.46,0,0,1,1.65-.62,1.7,1.7,0,0,1,.95.25l.05-.25h1.24l-.76,3.59A4.06,4.06,0,0,1,512,130Zm.05-3.74a.47.47,0,0,0-.15-.43.63.63,0,0,0-.43-.2,1.38,1.38,0,0,0-.88.28,1.3,1.3,0,0,0-.48.79c-.18.83.05,1.24.67,1.24a1.31,1.31,0,0,0,.66-.19.72.72,0,0,0,.38-.41Z" transform="translate(-232.33 -57.65)"/><path class="cls-1" d="M520.79,129.09l.08-.39a2.11,2.11,0,0,1-1.36.46,1.34,1.34,0,0,1-1.12-.44,1.4,1.4,0,0,1-.21-1.2l.64-3h1.23l-.54,2.58a.89.89,0,0,0,.07.64.57.57,0,0,0,.52.24,1.12,1.12,0,0,0,.7-.24,1.07,1.07,0,0,0,.41-.64l.55-2.58H523l-1,4.56Z" transform="translate(-232.33 -57.65)"/><path class="cls-1" d="M526.05,129.11l.54-2.58a.82.82,0,0,0-.07-.63.56.56,0,0,0-.53-.25,1.14,1.14,0,0,0-.7.24,1.12,1.12,0,0,0-.41.64l-.55,2.58H523.1l1-4.56h1.23l-.08.39a2.19,2.19,0,0,1,1.38-.46,1.25,1.25,0,0,1,1.32,1.65l-.63,3Z" transform="translate(-232.33 -57.65)"/><path class="cls-1" d="M531.81,130a2.51,2.51,0,0,1-1.94,1l.07-1.11a1.76,1.76,0,0,0,.9-.35,1.21,1.21,0,0,0,.45-.74,1.72,1.72,0,0,1-.53.25,2.25,2.25,0,0,1-.53,0,2.66,2.66,0,0,1-.85-.14,1.25,1.25,0,0,1-.56-.4,2.36,2.36,0,0,1-.17-1.84,2.7,2.7,0,0,1,.93-1.54,2.46,2.46,0,0,1,1.65-.62,1.7,1.7,0,0,1,.95.25l.05-.25h1.24l-.76,3.59A4.16,4.16,0,0,1,531.81,130Zm.05-3.74a.46.46,0,0,0-.16-.43.59.59,0,0,0-.42-.2,1.38,1.38,0,0,0-.88.28,1.3,1.3,0,0,0-.48.79c-.18.83,0,1.24.67,1.24a1.33,1.33,0,0,0,.66-.19.72.72,0,0,0,.38-.41Z" transform="translate(-232.33 -57.65)"/><path class="cls-1" d="M536.54,129.1l.09-.41a1.5,1.5,0,0,1-1.18.42,1.69,1.69,0,0,1-1.41-.59,1.8,1.8,0,0,1-.27-1.55,3.25,3.25,0,0,1,.92-1.69,2.33,2.33,0,0,1,1.72-.78,1.75,1.75,0,0,1,1,.32l.28-1.32,1.33-.44-1.29,6Zm.6-2.81a1.5,1.5,0,0,0-.24-.43.73.73,0,0,0-.51-.2,1.31,1.31,0,0,0-.77.2A1.8,1.8,0,0,0,535,127a1,1,0,0,0,.11.8.93.93,0,0,0,.75.3,1,1,0,0,0,.61-.27,2.64,2.64,0,0,0,.43-.45Z" transform="translate(-232.33 -57.65)"/><path class="cls-1" d="M542.7,128.54a2.7,2.7,0,0,1-1.83.65,1.81,1.81,0,0,1-1.56-.64,2.14,2.14,0,0,1-.24-1.73,3,3,0,0,1,1-1.69,2.75,2.75,0,0,1,1.81-.67,1.75,1.75,0,0,1,1.51.67,2,2,0,0,1,.3,1.69A3,3,0,0,1,542.7,128.54Zm-1.06-3a1.13,1.13,0,0,0-.86.4,2,2,0,0,0-.43.88c-.17.85.08,1.27.76,1.27a1.1,1.1,0,0,0,1-.47,2.23,2.23,0,0,0,.3-.8C542.57,126,542.32,125.55,541.64,125.55Z" transform="translate(-232.33 -57.65)"/><path class="cls-1" d="M549.87,129.11l.55-2.58a.82.82,0,0,0-.07-.63.55.55,0,0,0-.53-.25,1.1,1.1,0,0,0-1,.55.78.78,0,0,0-.09.2l-.58,2.71h-1.24l.55-2.58a.82.82,0,0,0-.07-.63.55.55,0,0,0-.53-.25,1.14,1.14,0,0,0-1.11.88l-.55,2.58H544l1-4.56h1.22l-.08.39a2.17,2.17,0,0,1,1.38-.46,1.35,1.35,0,0,1,1.09.43,3.2,3.2,0,0,1,1.58-.4,1.86,1.86,0,0,1,1.26.39,1.2,1.2,0,0,1,.33,1.23l-.63,3Z" transform="translate(-232.33 -57.65)"/><path class="cls-1" d="M554.29,129.12a4.5,4.5,0,0,1-.68,0,4.2,4.2,0,0,1-1.61-.43l.64-1a2.31,2.31,0,0,0,1.32.35c.48,0,.75-.14.8-.41s-.11-.24-.41-.32a8.34,8.34,0,0,1-1-.3,1,1,0,0,1-.72-1.25,1.66,1.66,0,0,1,.93-1.15,3.26,3.26,0,0,1,1.45-.33,2.42,2.42,0,0,1,1.47.4l-.61,1.07a3,3,0,0,0-.62-.31,2.15,2.15,0,0,0-.68-.09c-.34,0-.53.12-.58.36s.13.25.44.34a9.83,9.83,0,0,1,1,.28,1,1,0,0,1,.64,1.27A1.84,1.84,0,0,1,554.29,129.12Z" transform="translate(-232.33 -57.65)"/><path class="cls-1" d="M559.42,129.11l-.82-2-.56.45-.34,1.57h-1.22l1.17-5.51L559,123l-.64,3,1.57-1.29h1.72l-1.93,1.59,1.12,2.8Z" transform="translate(-232.33 -57.65)"/><path class="cls-1" d="M561.73,129.11l1.17-5.48,1.37-.64-1.3,6.12Z" transform="translate(-232.33 -57.65)"/><path class="cls-1" d="M567,129.09l.08-.39a2.16,2.16,0,0,1-1.37.46,1.23,1.23,0,0,1-1.32-1.64l.63-3h1.23l-.54,2.58a1,1,0,0,0,.07.64.58.58,0,0,0,.53.24,1.11,1.11,0,0,0,.69-.24,1.08,1.08,0,0,0,.42-.64l.54-2.58h1.23l-1,4.56Z" transform="translate(-232.33 -57.65)"/><path class="cls-1" d="M573.33,128.36a2.48,2.48,0,0,1-1.81.75c-.52,0-.84-.14-1-.42l-.08.41h-1.24l1.19-5.6,1.33-.44-.37,1.76a2.5,2.5,0,0,1,1.2-.34,1.41,1.41,0,0,1,1.29.61,2.54,2.54,0,0,1,.19,1.88A2.78,2.78,0,0,1,573.33,128.36Zm-.64-2.6a1,1,0,0,0-.6-.14,1.16,1.16,0,0,0-.6.2,1.91,1.91,0,0,0-.42.43l-.22,1.06a1.84,1.84,0,0,0,.23.45.59.59,0,0,0,.5.26,1.33,1.33,0,0,0,.86-.28,1.44,1.44,0,0,0,.47-.81C573,126.34,573,126,572.69,125.76Z" transform="translate(-232.33 -57.65)"/><path class="cls-1" d="M578.6,128.36a2.5,2.5,0,0,1-1.81.75c-.52,0-.84-.14-1-.42l-.08.41H574.5l1.18-5.6,1.34-.44-.37,1.76a2.5,2.5,0,0,1,1.2-.34,1.41,1.41,0,0,1,1.29.61,2.49,2.49,0,0,1,.18,1.88A2.69,2.69,0,0,1,578.6,128.36Zm-.64-2.6a1,1,0,0,0-.6-.14,1.1,1.1,0,0,0-.6.2,1.72,1.72,0,0,0-.42.43l-.22,1.06a1.84,1.84,0,0,0,.23.45.58.58,0,0,0,.5.26,1.35,1.35,0,0,0,.86-.28,1.5,1.5,0,0,0,.47-.81C578.3,126.34,578.23,126,578,125.76Z" transform="translate(-232.33 -57.65)"/><path class="cls-1" d="M581.28,127.39a.45.45,0,0,0,.16.47,1,1,0,0,0,.45.24l.29,0a1.13,1.13,0,0,0,.86-.35l.74.65a2.49,2.49,0,0,1-.86.57,2.67,2.67,0,0,1-1,.2,1.84,1.84,0,0,1-1.55-.63,2,2,0,0,1-.27-1.7,3.19,3.19,0,0,1,1-1.8,2.76,2.76,0,0,1,1.88-.65,1.48,1.48,0,0,1,1.49.93,3.49,3.49,0,0,1,0,2Zm2.06-1.66a.74.74,0,0,0-.64-.29,1.22,1.22,0,0,0-.77.28,1.17,1.17,0,0,0-.46.69h2A.79.79,0,0,0,583.34,125.73Z" transform="translate(-232.33 -57.65)"/><path class="cls-1" d="M588,125.82a.74.74,0,0,0-.41-.15.91.91,0,0,0-.59.21,1,1,0,0,0-.35.56l-.56,2.67H585l1-4.57h1.14l-.08.35a1.58,1.58,0,0,1,1.09-.45,1,1,0,0,1,.61.17Z" transform="translate(-232.33 -57.65)"/><path class="cls-1" d="M591.55,129.11l1-4.56h1.23l-1,4.56Zm2.18-5a.82.82,0,0,1-.52.19.5.5,0,0,1-.43-.19.53.53,0,0,1-.11-.47.85.85,0,0,1,.3-.49.82.82,0,0,1,.52-.19.5.5,0,0,1,.43.19.52.52,0,0,1,.1.49A.85.85,0,0,1,593.73,124.09Z" transform="translate(-232.33 -57.65)"/><path class="cls-1" d="M603.41,127.79a3.94,3.94,0,0,1-1.62,1.06,4.5,4.5,0,0,1-1.57.26h-2l1.25-5.88h2.06a3.42,3.42,0,0,1,1.76.41,2,2,0,0,1,1,1.35,2.74,2.74,0,0,1,0,1.14A3.68,3.68,0,0,1,603.41,127.79Zm-.89-3a2,2,0,0,0-1.47-.48h-.45l-.76,3.6h.45a2.81,2.81,0,0,0,1.83-.58,2,2,0,0,0,.72-1.2A1.32,1.32,0,0,0,602.52,124.84Z" transform="translate(-232.33 -57.65)"/><path class="cls-1" d="M607.42,129.09l.06-.29a3.17,3.17,0,0,1-1.36.32,1.35,1.35,0,0,1-1.11-.41,1.33,1.33,0,0,1-.19-1.16,2,2,0,0,1,.85-1.26,2.61,2.61,0,0,1,1.43-.39,1.81,1.81,0,0,1,.95.24c.1-.55-.16-.81-.77-.81a1.53,1.53,0,0,0-1,.32l-.26-.77a1.92,1.92,0,0,1,.81-.4,3.18,3.18,0,0,1,.84-.13,2,2,0,0,1,1.3.39,1.18,1.18,0,0,1,.35,1.24l-.66,3.11Zm.39-1.91q0-.12-.18-.21a1.14,1.14,0,0,0-.46-.09c-.64,0-1,.21-1.1.64s.16.53.73.53a2.2,2.2,0,0,0,.49-.1c.25-.08.39-.14.41-.21Z" transform="translate(-232.33 -57.65)"/><path class="cls-1" d="M612.63,129.11l.55-2.58a.87.87,0,0,0-.07-.63.58.58,0,0,0-.53-.25,1.12,1.12,0,0,0-.7.24,1.07,1.07,0,0,0-.41.64l-.55,2.58h-1.23l1-4.56h1.23l-.08.39a2.17,2.17,0,0,1,1.38-.46,1.35,1.35,0,0,1,1.11.45,1.37,1.37,0,0,1,.2,1.2l-.63,3Z" transform="translate(-232.33 -57.65)"/><path class="cls-1" d="M620.68,129.11l.55-2.58a.86.86,0,0,0-.08-.63.54.54,0,0,0-.53-.25,1.08,1.08,0,0,0-1,.55.6.6,0,0,0-.1.2l-.57,2.71h-1.24l.54-2.58a.82.82,0,0,0-.07-.63.54.54,0,0,0-.53-.25,1.14,1.14,0,0,0-.7.24,1.12,1.12,0,0,0-.41.64l-.55,2.58H614.8l1-4.56H617l-.08.39a2.19,2.19,0,0,1,1.38-.46,1.39,1.39,0,0,1,1.1.43,3.14,3.14,0,0,1,1.57-.4,1.86,1.86,0,0,1,1.26.39,1.2,1.2,0,0,1,.33,1.23l-.63,3Z" transform="translate(-232.33 -57.65)"/><path class="cls-1" d="M625.77,129.09l.07-.29a3.17,3.17,0,0,1-1.36.32,1.36,1.36,0,0,1-1.12-.41,1.33,1.33,0,0,1-.18-1.16,1.94,1.94,0,0,1,.84-1.26,2.62,2.62,0,0,1,1.44-.39,1.75,1.75,0,0,1,.94.24c.11-.55-.15-.81-.77-.81a1.52,1.52,0,0,0-1,.32l-.27-.77a2,2,0,0,1,.82-.4,3.17,3.17,0,0,1,.83-.13,2,2,0,0,1,1.3.39,1.16,1.16,0,0,1,.35,1.24l-.66,3.11Zm.4-1.91q0-.12-.18-.21a1.18,1.18,0,0,0-.46-.09c-.65,0-1,.21-1.1.64s.16.53.72.53a2.16,2.16,0,0,0,.5-.1c.25-.08.39-.14.4-.21Z" transform="translate(-232.33 -57.65)"/><path class="cls-1" d="M631.09,125.82a.74.74,0,0,0-.42-.15,1,1,0,0,0-.59.21,1,1,0,0,0-.34.56l-.57,2.67H628l1-4.57h1.13l-.07.35a1.58,1.58,0,0,1,1.09-.45,1,1,0,0,1,.61.17Z" transform="translate(-232.33 -57.65)"/><path class="cls-1" d="M634.38,129.11l-.82-2-.56.45-.33,1.57h-1.23l1.17-5.51L634,123l-.64,3,1.57-1.29h1.72l-1.92,1.59,1.11,2.8Z" transform="translate(-232.33 -57.65)"/></svg>